<svg id="Capa_1" enable-background="new 0 0 512 512" height="512" viewBox="0 0 512 512" width="512" xmlns="http://www.w3.org/2000/svg"><g><g><path d="m406 422h-60c-8.284 0-15-6.716-15-15s6.716-15 15-15h60c8.271 0 15-6.729 15-15v-122c0-8.271-6.729-15-15-15h-60c-8.284 0-15-6.716-15-15s6.716-15 15-15h60c24.813 0 45 20.187 45 45v122c0 24.813-20.187 45-45 45z" fill="#d3d3d8"/></g><path d="m361 105c0 24.81-20.19 45-45 45h-180c-24.81 0-45-20.19-45-45 0-19.96 13.06-36.93 31.09-42.8 6.1-35.28 36.92-62.2 73.91-62.2 10.5 0 20.69 2.23 30 6.34 12.36 5.45 23.16 14.19 31.09 25.37 25.62-6.38 52.8 5.46 66 28.85 21.46 3.41 37.91 22.04 37.91 44.44z" fill="#ececf1"/><path d="m361 105c0 24.81-20.19 45-45 45h-90v-143.66c12.36 5.45 23.16 14.19 31.09 25.37 25.62-6.38 52.8 5.46 66 28.85 21.46 3.41 37.91 22.04 37.91 44.44z" fill="#d3d3d8"/><g><path d="m374.15 431.89c-8.36-6.71-13.15-18.95-13.15-33.6v-164.58c0-14.65 4.79-26.89 13.15-33.6 10.71-8.6 16.85-21.39 16.85-35.11 0-24.81-20.19-45-45-45h-240c-24.81 0-45 20.19-45 45 0 13.72 6.14 26.51 16.85 35.11 8.36 6.71 13.15 18.95 13.15 33.6v164.58c0 14.65-4.79 26.89-13.15 33.6-10.71 8.6-16.85 21.39-16.85 35.11 0 24.81 20.19 45 45 45h240c24.81 0 45-20.19 45-45 0-13.72-6.14-26.51-16.85-35.11z" fill="#ffdf8e"/></g><path d="m391 467c0 24.81-20.19 45-45 45h-120v-392h120c24.81 0 45 20.19 45 45 0 13.72-6.14 26.51-16.85 35.11-8.36 6.71-13.15 18.95-13.15 33.6v164.58c0 14.65 4.79 26.89 13.15 33.6 10.71 8.6 16.85 21.39 16.85 35.11z" fill="#ffb64c"/><g><g><g><path d="m241 225v182c0 8.28-6.72 15-15 15s-15-6.72-15-15v-182c0-8.28 6.72-15 15-15s15 6.72 15 15z" fill="#ffb64c"/></g></g></g><path d="m241 225v182c0 8.28-6.72 15-15 15v-212c8.28 0 15 6.72 15 15z" fill="#ff9100"/><g><path d="m286 422c-8.284 0-15-6.716-15-15v-182c0-8.284 6.716-15 15-15s15 6.716 15 15v182c0 8.284-6.716 15-15 15z" fill="#ff9100"/></g><g><g><g><path d="m166 422c-8.284 0-15-6.716-15-15v-182c0-8.284 6.716-15 15-15s15 6.716 15 15v182c0 8.284-6.716 15-15 15z" fill="#ffb64c"/></g></g></g></g></svg>